<svg xmlns="http://www.w3.org/2000/svg" viewBox="0 0 24 24" width="64" height="64">
  <!-- Hand -->
  <path d="M4 12c0-1.5 1-3 2.5-3.5C7 8 7.5 8 8 8.5c.5-.5 1-.5 1.5 0C10 8 10.5 8 11 8.5c.5-.5 1-.5 1.5 0C13 8 13.5 8 14 8.5c1-1 2.5-.5 3 1.5l1 3c.5 2-1 4-3 4H9c-2 0-4-1.5-4-3.5V12z" fill="#1e3a8a"/>
  
  <!-- Water droplet -->
  <path d="M12 2c-.4.5-3 4-3 6 0 1.7 1.3 3 3 3s3-1.3 3-3c0-2-2.6-5.5-3-6z" fill="#60a5fa">
    <!-- Small highlight on droplet -->
    <path d="M11 4.5c-.2.3-1.5 2-1.5 3 0 .8.7 1.5 1.5 1.5" fill="#93c5fd" opacity="0.6"/>
  </path>
</svg>
